REM MD5 64e3b2e8f8240282832f6a44413e7aba
FILE "Simple 1500 Series Vol. 36 - The Ren'ai Simulation - Natsuiro Celebration (Japan).bin" BINARY
  TRACK 01 MODE2/2352
    INDEX 01 00:00:00
  TRACK 02 AUDIO
    INDEX 00 24:36:51
    INDEX 01 24:38:51
  TRACK 03 AUDIO
    INDEX 00 26:24:53
    INDEX 01 26:26:53
  TRACK 04 AUDIO
    INDEX 00 28:04:19
    INDEX 01 28:06:19
REM LEADOUT 31:15:20
